<?xml version="1.0" encoding="utf-8"?>
<!-- Generator: Adobe Illustrator 24.1.3, SVG Export Plug-In . SVG Version: 6.00 Build 0)  -->
<svg version="1.1" id="Layer_1" xmlns="http://www.w3.org/2000/svg" xmlns:xlink="http://www.w3.org/1999/xlink" x="0px" y="0px"
	 viewBox="0 0 200 200" style="enable-background:new 0 0 200 200;" xml:space="preserve">
<style type="text/css">
	.st0{fill:#268278;}
</style>
<g>
	<path class="st0" d="M100,0C44.9,0,0,44.9,0,100s44.9,100,100,100s100-44.9,100-100S155.1,0,100,0z M100,189.2
		c-49.2,0-89.2-40-89.2-89.2s40-89.2,89.2-89.2s89.2,40,89.2,89.2S149.2,189.2,100,189.2z"/>
	<path class="st0" d="M105.4,98.3v-50c0-3-2.4-5.4-5.4-5.4s-5.4,2.4-5.4,5.4v52.2c0,1.4,0.6,2.8,1.6,3.8l25.8,25.2
		c1,1,2.3,1.5,3.8,1.5c1.5,0,2.8-0.6,3.8-1.6c1-1,1.5-2.4,1.5-3.8s-0.6-2.8-1.6-3.8L105.4,98.3z"/>
</g>
</svg>
