<?xml version="1.0" encoding="utf-8"?>
<!-- Generator: Adobe Illustrator 24.1.3, SVG Export Plug-In . SVG Version: 6.00 Build 0)  -->
<svg version="1.1" id="Layer_1" xmlns="http://www.w3.org/2000/svg" xmlns:xlink="http://www.w3.org/1999/xlink" x="0px" y="0px"
	 viewBox="0 0 200 200" style="enable-background:new 0 0 200 200;" xml:space="preserve">
<style type="text/css">
	.st0{fill:#268278;}
</style>
<g>
	<path class="st0" d="M60.2,135.6c0,1.1,0.4,2.1,1.2,2.8c0.8,0.8,1.7,1.2,2.9,1.2c1.1,0,2.1-0.4,2.9-1.2L97.9,108
		c0.7-0.8,1.1-1.8,1.1-2.8c0-1.1-0.4-2.1-1.2-2.8c-0.8-0.8-1.7-1.2-2.9-1.2c-1.1,0-2.1,0.4-2.9,1.2l-30.7,30.4
		C60.6,133.6,60.2,134.6,60.2,135.6z"/>
	<path class="st0" d="M70,104.9L70,104.9c-0.8-0.8-1.8-1.2-2.9-1.2c-1.1,0-2.1,0.4-2.9,1.2L48.9,120c-1.6,1.6-1.6,4.1,0,5.7
		c0.8,0.8,1.8,1.2,2.9,1.2c1.1,0,2.1-0.4,2.9-1.2L70,110.6C71.5,109.1,71.5,106.5,70,104.9z"/>
	<path class="st0" d="M73.9,151c0.8,0.8,1.7,1.2,2.9,1.2c1.1,0,2.1-0.4,2.9-1.2l30.7-30.4c0.8-0.8,1.2-1.8,1.2-2.8
		c0-1.1-0.4-2.1-1.2-2.8c-0.8-0.8-1.7-1.2-2.9-1.2c-1.1,0-2.1,0.4-2.9,1.2l-30.7,30.4C72.3,147,72.3,149.5,73.9,151z"/>
	<path class="st0" d="M118.6,57c2.2,0,4.2-0.9,5.7-2.4c1.5-1.5,2.4-3.6,2.4-5.7c0-2.2-0.9-4.2-2.4-5.7c-1.5-1.5-3.6-2.4-5.7-2.4
		c-2.2,0-4.2,0.9-5.7,2.4c-1.5,1.5-2.4,3.6-2.4,5.7c0,2.2,0.9,4.2,2.4,5.7C114.5,56.1,116.5,57,118.6,57z"/>
	<path class="st0" d="M135,73.3c2.2,0,4.2-0.9,5.7-2.4c1.5-1.5,2.4-3.6,2.4-5.7c0-2.2-0.9-4.2-2.4-5.7c-1.5-1.5-3.6-2.4-5.7-2.4
		c-2.2,0-4.2,0.9-5.7,2.4c-3.2,3.2-3.2,8.1,0,11.3C130.8,72.5,132.9,73.3,135,73.3z"/>
	<path class="st0" d="M151.3,89.8c2.2,0,4.2-0.9,5.7-2.4c3.2-3.2,3.2-8.1,0-11.3c-1.4-1.5-3.4-2.4-5.7-2.4c-2.2,0-4.2,0.9-5.7,2.4
		c-3.2,3.2-3.2,8.1,0,11.3C147.1,88.9,149.2,89.8,151.3,89.8z"/>
	<path class="st0" d="M198.5,63.2l-15.4-15.5c-1.8-1.8-4.6-2-6.7-0.5c-2.7,2.1-6.1,3.2-9.8,3.2c-4.4,0-8.6-1.7-11.6-4.8
		c-5.7-5.7-6.3-14.9-1.4-21.3c1.6-2,1.4-4.9-0.5-6.8L137.8,1.9c-1-1-2.2-1.5-3.6-1.5c-1.4,0-2.6,0.5-3.6,1.5L1.5,129.4
		c-1,1-1.5,2.2-1.5,3.6c0,1.4,0.5,2.7,1.5,3.6l15.4,15.5c1.8,1.8,4.6,2,6.7,0.5c2.8-2,6.3-3.2,9.8-3.2c4.4,0,8.6,1.7,11.6,4.8
		c5.7,5.7,6.3,14.9,1.4,21.5c-1.5,2.1-1.3,4.9,0.5,6.7l15.4,15.5c1,1,2.2,1.5,3.7,1.5c1.4,0,2.6-0.5,3.6-1.5L198.5,70.5
		c1-1,1.5-2.2,1.5-3.6C200,65.5,199.5,64.2,198.5,63.2z M54.7,177c4.9-9.2,3.2-20.8-4-28.1c-2.8-2.8-6.3-4.8-10.1-6
		c-2.2-0.7-4.5-1-7.1-1c-4.5,0-8.7,1.2-12.4,3.5l-10.6-10.7L8.7,133l1.7-1.7L132.8,10.6l1.6-1.5l12.2,12.3
		c-5.9,9.4-4.6,21.7,3.2,29.5c3.8,3.9,9.1,6.4,14.6,6.9c0.9,0.1,1.8,0.1,2.6,0.1c3.8,0,7.6-0.9,11.1-2.7l1.3-0.7l12.1,12.3L66,190.9
		l-10.9-11l-1.2-1.3L54.7,177z"/>
</g>
</svg>
