<?xml version="1.0" encoding="utf-8"?>
<!-- Generator: Adobe Illustrator 24.1.3, SVG Export Plug-In . SVG Version: 6.00 Build 0)  -->
<svg version="1.1" id="Layer_1" xmlns="http://www.w3.org/2000/svg" xmlns:xlink="http://www.w3.org/1999/xlink" x="0px" y="0px"
	 viewBox="0 0 200 200" style="enable-background:new 0 0 200 200;" xml:space="preserve">
<style type="text/css">
	.st0{fill:#268278;}
</style>
<g>
	<path class="st0" d="M139.4,102.3l21.2,0c2.8,0,5-2.3,5-5c0-2.8-2.3-5-5-5.1l-21.2,0c-2.8,0-5,2.3-5,5
		C134.3,100,136.6,102.3,139.4,102.3z"/>
	<path class="st0" d="M139.3,132.5l21.2,0c2.8,0,5-2.3,5-5c0-2.8-2.3-5-5-5.1l-21.2,0c-2.8,0-5,2.3-5,5
		C134.3,130.3,136.5,132.5,139.3,132.5z"/>
	<path class="st0" d="M139.3,166.2l21.2,0c2.8,0,5-2.3,5-5c0-2.8-2.3-5-5-5.1l-21.2,0c-2.8,0-5,2.3-5,5
		C134.2,163.9,136.5,166.2,139.3,166.2z"/>
	<path class="st0" d="M92.3,102.2l21.2,0c2.8,0,5-2.3,5-5c0-1.3-0.5-2.6-1.5-3.6c-1-1-2.2-1.5-3.6-1.5l-21.2,0c-2.8,0-5,2.3-5,5
		c0,1.3,0.5,2.6,1.5,3.6C89.7,101.7,90.9,102.2,92.3,102.2z"/>
	<path class="st0" d="M92.2,132.5l21.2,0c2.8,0,5-2.3,5-5c0-1.3-0.5-2.6-1.5-3.6c-1-1-2.2-1.5-3.6-1.5l-21.2,0c-2.8,0-5,2.3-5,5
		c0,1.3,0.5,2.6,1.5,3.6C89.6,131.9,90.9,132.5,92.2,132.5z"/>
	<path class="st0" d="M92.2,166.1l21.2,0c2.8,0,5-2.3,5-5c0-1.3-0.5-2.6-1.5-3.6c-1-1-2.2-1.5-3.6-1.5l-21.2,0c-2.8,0-5,2.3-5,5
		c0,1.3,0.5,2.6,1.5,3.6C89.6,165.6,90.8,166.1,92.2,166.1z"/>
	<path class="st0" d="M38.5,102.1l21.2,0c2.8,0,5-2.3,5-5c0-2.8-2.3-5-5-5.1l-21.2,0c-2.8,0-5,2.3-5,5
		C33.4,99.8,35.7,102.1,38.5,102.1z"/>
	<path class="st0" d="M38.5,133.8l21.2,0c2.8,0,5-2.3,5-5c0-2.8-2.3-5-5-5.1l-21.2,0c-2.8,0-5,2.3-5,5
		C33.4,131.6,35.7,133.8,38.5,133.8z"/>
	<path class="st0" d="M38.5,167.5l21.2,0c2.8,0,5-2.3,5-5c0-2.8-2.3-5-5-5.1l-21.2,0c-2.8,0-5,2.3-5,5
		C33.4,165.2,35.7,167.5,38.5,167.5z"/>
	<path class="st0" d="M189.2,25.5c-4.6-4.6-10.7-7.2-17.2-7.2l-6.3,0l0-7.8c0-2.8-1.1-5.3-3-7.3c-2-2-4.5-3-7.3-3l-2.9,0
		c-5.7,0-10.3,4.6-10.3,10.3l0,7.8l-84.1-0.1l0-7.8c0-2.8-1.1-5.3-3-7.3c-2-2-4.5-3-7.3-3l-2.9,0c-5.7,0-10.3,4.6-10.3,10.3l0,7.8
		l-6.3,0C14.8,18.1,3.9,29,3.9,42.4l-0.2,133c0,13.4,10.9,24.4,24.3,24.4l143.8,0.2c6.5,0,12.6-2.5,17.2-7.1
		c4.6-4.6,7.2-10.7,7.2-17.2l0.2-133C196.3,36.2,193.8,30.1,189.2,25.5z M186.2,76.7l-0.1,99c0,3.8-1.5,7.4-4.2,10.1
		c-2.7,2.7-6.3,4.2-10.1,4.2L28,189.7c-3.8,0-7.4-1.5-10.1-4.2c-2.7-2.7-4.2-6.3-4.2-10.1l0.1-99L186.2,76.7z M48,40.1
		c0,0.1-0.1,0.2-0.2,0.2l-3.1-0.2l0-29.8l0.2-0.2l3.1,0.2L48,40.1z M155.6,40.3c0,0.1-0.1,0.2-0.2,0.2l-3.1-0.2l0-29.8l0.2-0.2
		l3.1,0.2L155.6,40.3z M37.5,47.4c2,2,4.5,3,7.3,3l2.9,0c5.7,0,10.3-4.6,10.3-10.3l0-11.9l84.1,0.1l0,11.9c0,2.8,1.1,5.3,3,7.3
		c2,2,4.5,3,7.3,3l2.9,0c5.7,0,10.3-4.6,10.3-10.3l0-11.9l6.3,0c3.8,0,7.4,1.5,10.1,4.2c2.7,2.7,4.2,6.3,4.2,10.1l0,23.9L13.9,66.3
		l0-23.9c0-3.8,1.5-7.4,4.2-10.1c2.7-2.7,6.3-4.2,10.1-4.2l6.3,0l0,11.9C34.5,42.9,35.6,45.5,37.5,47.4z"/>
</g>
</svg>
